<?xml version="1.0" standalone="no"?>
<!DOCTYPE svg PUBLIC "-//W3C//DTD SVG 20010904//EN"
 "http://www.w3.org/TR/2001/REC-SVG-20010904/DTD/svg10.dtd">
<svg version="1.0" xmlns="http://www.w3.org/2000/svg"
 width="1200.000000pt" height="1200.000000pt" viewBox="0 0 1200.000000 1200.000000"
 preserveAspectRatio="xMidYMid meet">

<g transform="translate(0.000000,1200.000000) scale(0.100000,-0.100000)"
fill="#000000" stroke="none">
<path d="M5436 10030 c-560 -50 -1040 -188 -1546 -446 -568 -288 -1090 -746
-1467 -1284 -397 -567 -645 -1234 -718 -1932 -20 -195 -20 -620 0 -816 58
-557 239 -1125 513 -1607 498 -875 1305 -1538 2260 -1855 756 -250 1539 -277
2317 -78 289 73 487 148 790 298 400 199 707 416 1024 725 361 353 623 716
837 1160 413 858 513 1848 279 2759 -155 608 -436 1160 -824 1621 -241 286
-482 507 -796 730 -170 121 -292 193 -503 299 -445 223 -868 350 -1362 411
-156 20 -649 28 -804 15z m-1 -2081 c143 -6 261 -12 263 -14 2 -1 -6 -47 -17
-101 -17 -87 -34 -213 -43 -324 l-3 -34 55 2 c133 6 590 44 745 62 225 27 570
84 724 121 68 16 127 27 130 23 3 -3 13 -163 21 -355 l15 -349 -40 -4 c-22 -3
-80 -10 -130 -16 -49 -6 -164 -19 -255 -30 -267 -32 -683 -68 -1000 -86 -162
-9 -298 -19 -302 -23 -4 -3 -10 -59 -14 -123 -8 -137 -25 -125 141 -103 64 8
191 15 302 15 l191 0 17 51 c10 28 23 83 30 122 7 40 16 71 21 70 40 -6 681
-177 687 -182 4 -4 -4 -32 -17 -62 -14 -30 -34 -77 -45 -105 l-20 -52 62 -22
c183 -67 366 -191 483 -328 124 -145 182 -255 231 -439 25 -91 27 -113 27
-298 0 -191 -2 -205 -31 -317 -57 -214 -155 -389 -306 -545 -122 -126 -229
-205 -395 -291 -186 -95 -366 -156 -582 -197 -86 -16 -402 -57 -405 -52 -1 1
-12 36 -25 77 -29 99 -101 274 -156 381 -69 134 -60 129 -130 70 -159 -137
-378 -267 -557 -330 -397 -139 -800 -76 -1024 162 -161 170 -237 384 -237 667
1 383 148 725 440 1022 151 155 295 257 500 355 l112 53 4 187 c2 124 0 191
-7 195 -9 7 -375 13 -721 13 l-142 -1 -7 344 c-4 189 -5 345 -2 348 3 3 31 1
63 -5 151 -27 341 -43 581 -48 l262 -6 7 39 c4 21 8 140 8 262 l1 224 115 -6
c63 -3 232 -11 375 -17z"/>
<path d="M5750 6023 c-14 -2 -57 -10 -96 -19 -72 -15 -72 -15 -76 -51 -6 -46
10 -482 20 -552 l7 -53 66 88 c132 178 254 380 323 537 l26 57 -123 -1 c-67
-1 -133 -3 -147 -6z"/>
<path d="M6601 5706 c-163 -347 -376 -664 -614 -913 -50 -51 -88 -95 -86 -97
7 -7 261 23 339 40 125 27 230 63 325 112 123 64 264 202 317 312 101 206 87
422 -38 559 -34 38 -151 121 -170 121 -5 0 -38 -60 -73 -134z"/>
<path d="M4832 5616 c-134 -112 -216 -232 -263 -386 -32 -102 -32 -253 -2
-321 41 -93 112 -126 227 -108 61 10 182 67 180 84 -22 144 -48 409 -57 576
l-12 217 -73 -62z"/>
</g>
</svg>
