<?xml version="1.0" standalone="no"?>
<!DOCTYPE svg PUBLIC "-//W3C//DTD SVG 20010904//EN"
 "http://www.w3.org/TR/2001/REC-SVG-20010904/DTD/svg10.dtd">
<svg version="1.0" xmlns="http://www.w3.org/2000/svg"
 width="1200.000000pt" height="1200.000000pt" viewBox="0 0 1200.000000 1200.000000"
 preserveAspectRatio="xMidYMid meet">

<g transform="translate(0.000000,1200.000000) scale(0.100000,-0.100000)"
fill="#000000" stroke="none">
<path d="M5730 10139 c-430 -25 -886 -127 -1300 -291 -162 -64 -474 -218 -618
-305 -297 -179 -552 -381 -812 -642 -284 -284 -456 -504 -649 -826 -305 -509
-508 -1108 -576 -1700 -22 -194 -30 -574 -16 -770 49 -681 263 -1350 615
-1923 591 -962 1531 -1648 2620 -1912 367 -89 588 -114 1006 -114 418 0 639
25 1006 114 759 184 1452 574 1999 1126 658 662 1071 1489 1204 2409 61 422
52 928 -25 1345 -131 709 -438 1377 -889 1933 -137 169 -462 491 -625 621
-275 219 -487 354 -785 501 -534 264 -1056 401 -1645 435 -205 11 -296 11
-510 -1z m656 -2046 c-22 -239 -25 -443 -26 -1770 l0 -1453 451 0 450 0 -5
1188 c-3 653 -8 1215 -11 1250 l-7 62 389 -2 c381 -3 388 -3 386 -23 -16 -138
-23 -627 -23 -1659 1 -1119 5 -1405 26 -1698 l7 -98 -382 0 -381 0 0 135 0
135 -1240 0 -1240 0 0 -135 0 -135 -376 0 -375 0 8 158 c10 203 11 2969 0
3170 l-8 152 387 0 386 0 -7 -47 c-3 -27 -9 -589 -11 -1250 l-5 -1203 416 0
416 0 -4 1588 c-3 1019 -8 1607 -14 1642 -6 30 -9 58 -6 63 2 4 185 7 405 7
l401 0 -7 -77z"/>
</g>
</svg>
