<?xml version="1.0" standalone="no"?>
<!DOCTYPE svg PUBLIC "-//W3C//DTD SVG 20010904//EN"
 "http://www.w3.org/TR/2001/REC-SVG-20010904/DTD/svg10.dtd">
<svg version="1.0" xmlns="http://www.w3.org/2000/svg"
 width="1200.000000pt" height="1200.000000pt" viewBox="0 0 1200.000000 1200.000000"
 preserveAspectRatio="xMidYMid meet">

<g transform="translate(0.000000,1200.000000) scale(0.100000,-0.100000)"
fill="#000000" stroke="none">
<path d="M5436 10030 c-560 -50 -1040 -188 -1546 -446 -568 -288 -1090 -746
-1467 -1284 -397 -567 -645 -1234 -718 -1932 -20 -195 -20 -620 0 -816 58
-557 239 -1125 513 -1607 498 -875 1305 -1538 2260 -1855 756 -250 1539 -277
2317 -78 289 73 487 148 790 298 400 199 707 416 1024 725 361 353 623 716
837 1160 413 858 513 1848 279 2759 -155 608 -436 1160 -824 1621 -241 286
-482 507 -796 730 -170 121 -292 193 -503 299 -445 223 -868 350 -1362 411
-156 20 -649 28 -804 15z m2060 -2402 c65 -73 158 -177 207 -230 l88 -97 -30
-33 c-31 -36 -80 -129 -126 -238 -140 -334 -368 -686 -609 -937 -149 -156
-394 -357 -552 -453 l-57 -34 -19 24 c-77 97 -208 235 -288 304 -100 86 -175
146 -182 146 -3 0 -11 -62 -17 -137 -48 -540 -179 -898 -454 -1238 -88 -109
-271 -284 -392 -376 -161 -120 -398 -260 -617 -362 l-97 -45 -66 122 c-116
216 -200 335 -363 515 -49 53 -69 82 -60 86 297 102 536 214 687 322 310 222
481 484 550 844 50 265 64 749 25 905 l-6 24 417 0 417 0 -6 -37 c-7 -48 -20
-493 -15 -493 12 0 192 97 254 137 209 136 419 360 544 580 23 40 41 75 41 78
0 3 -498 5 -1107 5 -1013 -1 -1484 -8 -1650 -26 l-63 -7 0 387 c0 212 3 386 8
386 4 0 66 -8 137 -17 112 -14 326 -16 1572 -20 1443 -4 1569 -2 1658 30 22 8
43 15 46 16 3 0 59 -59 125 -131z"/>
</g>
</svg>
